<?xml version="1.0" standalone="no"?>
<!DOCTYPE svg PUBLIC "-//W3C//DTD SVG 20010904//EN"
 "http://www.w3.org/TR/2001/REC-SVG-20010904/DTD/svg10.dtd">
<svg version="1.0" xmlns="http://www.w3.org/2000/svg"
 width="391.000000pt" height="154.000000pt" viewBox="0 0 391.000000 154.000000"
 preserveAspectRatio="xMidYMid meet">

<g transform="translate(0.000000,154.000000) scale(0.100000,-0.100000)"
fill="#000000" stroke="none">
<path d="M232 1308 c-16 -16 -16 -55 1 -65 6 -4 75 -10 153 -13 132 -5 143 -7
182 -32 95 -64 126 -194 68 -292 -18 -32 -43 -55 -79 -76 -50 -29 -56 -30
-179 -30 -115 0 -130 -2 -148 -20 -16 -16 -18 -25 -10 -40 14 -26 32 -29 181
-32 118 -3 128 -5 167 -30 94 -63 126 -194 70 -289 -15 -25 -46 -59 -70 -75
-42 -28 -47 -29 -183 -32 -77 -2 -146 -8 -152 -14 -20 -16 -15 -56 7 -68 14
-8 190 -10 573 -8 l552 3 43 23 c143 77 210 221 168 365 -12 42 -30 71 -70
114 l-54 58 52 56 c144 155 98 388 -94 478 l-55 26 -555 3 c-431 2 -558 0
-568 -10z m1129 -613 c152 -54 189 -263 63 -362 -22 -16 -54 -35 -73 -41 -35
-12 -671 -18 -671 -6 0 3 9 19 20 34 67 94 67 256 0 350 -11 15 -20 31 -20 34
0 3 143 6 319 6 261 0 326 -3 362 -15z"/>
<path d="M1832 1298 c-17 -17 -17 -439 0 -456 17 -17 180 -16 221 2 54 23 80
59 85 118 3 45 0 59 -22 91 -24 35 -25 40 -11 60 18 26 19 93 2 127 -7 13 -28
35 -46 47 -29 20 -47 23 -125 23 -58 0 -96 -4 -104 -12z m189 -78 c22 -12 27
-68 7 -88 -7 -7 -38 -12 -70 -12 l-58 0 0 55 0 55 51 0 c28 0 59 -5 70 -10z
m21 -197 c24 -21 23 -68 -2 -93 -16 -16 -33 -20 -80 -20 l-60 0 0 65 0 65 62
0 c43 0 67 -5 80 -17z"/>
<path d="M2340 1294 c-73 -31 -131 -108 -145 -191 -10 -61 17 -144 63 -195
149 -166 423 -59 422 164 -1 91 -54 174 -141 218 -47 24 -148 26 -199 4z m181
-87 c78 -53 101 -140 57 -219 -29 -52 -75 -79 -135 -80 -81 -2 -140 43 -165
123 -20 68 21 156 86 185 49 21 118 17 157 -9z"/>
<path d="M2875 1296 c-124 -54 -182 -214 -120 -335 43 -87 117 -132 214 -132
140 -1 242 100 242 240 1 97 -50 179 -135 220 -49 24 -153 28 -201 7z m193
-95 c86 -61 86 -200 1 -263 -53 -40 -144 -40 -198 -1 -88 65 -77 222 19 275
48 26 134 21 178 -11z"/>
<path d="M3300 1290 c-7 -12 -9 -97 -8 -231 3 -189 5 -213 21 -223 12 -8 22
-8 35 0 13 9 18 28 20 91 2 70 6 83 27 103 13 12 28 19 33 16 5 -3 40 -51 78
-107 37 -55 74 -104 82 -107 19 -7 46 10 50 31 2 9 -32 69 -75 133 l-78 117
71 66 c76 72 86 87 72 114 -17 32 -47 17 -150 -79 l-103 -95 -3 82 c-2 46 -8
89 -14 96 -16 19 -46 16 -58 -7z"/>
<path d="M1882 663 c-63 -31 -94 -105 -69 -165 20 -48 75 -79 179 -102 82 -18
76 -103 -8 -120 -39 -9 -98 14 -113 42 -20 37 -65 38 -76 1 -8 -25 35 -83 78
-106 46 -24 134 -23 177 3 70 41 98 119 66 183 -20 38 -49 55 -133 80 -83 25
-108 47 -94 83 17 45 88 52 150 16 33 -19 41 -20 55 -9 22 19 20 44 -6 69 -48
44 -144 56 -206 25z"/>
<path d="M2142 668 c-7 -7 -12 -19 -12 -28 0 -28 22 -40 72 -40 l48 0 0 -183
c0 -204 5 -225 53 -213 l27 6 0 195 0 195 49 0 c47 0 81 17 81 40 0 5 -7 16
-16 24 -12 13 -41 16 -153 16 -93 0 -141 -4 -149 -12z"/>
<path d="M2600 664 c-45 -19 -97 -69 -121 -116 -82 -160 35 -352 216 -351 73
0 120 19 168 67 58 58 72 91 72 176 0 80 -19 126 -75 179 -61 58 -182 79 -260
45z m180 -86 c76 -52 99 -132 61 -211 -24 -50 -57 -76 -110 -88 -148 -33 -259
149 -162 265 50 59 150 75 211 34z"/>
<path d="M3000 661 c-6 -12 -10 -102 -10 -223 0 -221 5 -243 51 -236 23 3 24
6 27 96 l3 92 28 0 c25 0 34 -11 83 -92 44 -75 59 -93 78 -93 41 0 47 28 17
82 -66 115 -65 111 -30 138 40 32 57 75 50 131 -9 87 -69 124 -201 124 -74 0
-87 -3 -96 -19z m198 -77 c29 -20 29 -67 0 -94 -18 -17 -33 -20 -73 -18 l-50
3 -3 63 -3 62 53 0 c32 0 62 -6 76 -16z"/>
<path d="M3371 661 c-7 -12 -11 -102 -11 -229 0 -167 3 -212 14 -221 9 -8 53
-11 131 -9 99 3 120 6 129 21 8 12 8 22 0 35 -9 14 -28 18 -103 20 l-91 3 0
59 0 60 70 0 c64 0 71 2 79 23 15 39 -12 57 -86 57 l-63 0 0 60 0 59 91 3 c75
2 94 6 103 21 8 12 8 22 0 35 -9 14 -30 17 -132 20 -112 2 -122 1 -131 -17z"/>
</g>
</svg>
